<svg width="1402" height="233" viewBox="0 0 1402 233" fill="none" xmlns="http://www.w3.org/2000/svg">
<rect width="1402" height="233" rx="10" fill="#800080"/>
<rect x="746" y="154" width="66" height="66" rx="10" fill="#111111" fill-opacity="0.1"/>
<rect width="65.1646" height="66" rx="10" transform="matrix(-1 0 0 1 106 161)" fill="#111111" fill-opacity="0.1"/>
<path d="M64 216C64 210.477 59.5228 206 54 206H38C32.4772 206 28 210.477 28 216V233H64V216Z" fill="#111111" fill-opacity="0.1"/>
<path d="M67 0H193V99C193 104.523 188.523 109 183 109H77C71.4772 109 67 104.523 67 99V0Z" fill="#111111" fill-opacity="0.1"/>
<rect x="148" y="64" width="126" height="126" rx="10" fill="#111111" fill-opacity="0.1"/>
</svg>
