<svg width="28" height="28" viewBox="0 0 28 28" fill="none" xmlns="http://www.w3.org/2000/svg">
<path id="Vector" d="M5.83333 0C4.28624 0 2.80251 0.614582 1.70854 1.70854C0.614582 2.80251 0 4.28624 0 5.83333V22.1667C0 23.7138 0.614582 25.1975 1.70854 26.2915C2.80251 27.3854 4.28624 28 5.83333 28H22.1667C23.7138 28 25.1975 27.3854 26.2915 26.2915C27.3854 25.1975 28 23.7138 28 22.1667V5.83333C28 4.28624 27.3854 2.80251 26.2915 1.70854C25.1975 0.614582 23.7138 0 22.1667 0H5.83333ZM20.6593 11.326L12.4927 19.4927C12.3843 19.6013 12.2556 19.6875 12.1138 19.7463C11.9721 19.8051 11.8201 19.8354 11.6667 19.8354C11.5132 19.8354 11.3613 19.8051 11.2195 19.7463C11.0778 19.6875 10.949 19.6013 10.8407 19.4927L7.34067 15.9927C7.23219 15.8842 7.14615 15.7554 7.08744 15.6137C7.02874 15.472 6.99853 15.3201 6.99853 15.1667C6.99853 15.0133 7.02874 14.8614 7.08744 14.7196C7.14615 14.5779 7.23219 14.4491 7.34067 14.3407C7.55973 14.1216 7.85686 13.9985 8.16667 13.9985C8.32007 13.9985 8.47197 14.0287 8.6137 14.0874C8.75542 14.1461 8.88419 14.2322 8.99267 14.3407L11.6667 17.017L19.0073 9.674C19.2264 9.45493 19.5235 9.33186 19.8333 9.33186C20.1431 9.33186 20.4403 9.45493 20.6593 9.674C20.8784 9.89307 21.0015 10.1902 21.0015 10.5C21.0015 10.8098 20.8784 11.1069 20.6593 11.326Z" fill="#800080"/>
</svg>
