<svg width="12" height="12" viewBox="0 0 12 12" fill="none" xmlns="http://www.w3.org/2000/svg">
<g id="basil:facebook-outline">
<path id="Vector" fill-rule="evenodd" clip-rule="evenodd" d="M5.244 1.894C5.73622 1.4017 6.40384 1.12508 7.1 1.125H8.45C8.54946 1.125 8.64484 1.16451 8.71517 1.23483C8.78549 1.30516 8.825 1.40054 8.825 1.5V3.3C8.825 3.39946 8.78549 3.49484 8.71517 3.56517C8.64484 3.63549 8.54946 3.675 8.45 3.675H7.1C7.09015 3.675 7.0804 3.67694 7.0713 3.68071C7.0622 3.68448 7.05393 3.69 7.04697 3.69697C7.04 3.70393 7.03448 3.7122 7.03071 3.7213C7.02694 3.7304 7.025 3.74015 7.025 3.75V4.725H8.45C8.50701 4.72497 8.56328 4.73794 8.61452 4.76292C8.66577 4.78789 8.71064 4.82423 8.74574 4.86916C8.78083 4.91409 8.80522 4.96642 8.81705 5.02219C8.82888 5.07796 8.82784 5.13569 8.814 5.191L8.364 6.991C8.3437 7.07216 8.29684 7.1442 8.23089 7.19566C8.16493 7.24712 8.08366 7.27505 8 7.275H7.025V10.5C7.025 10.5995 6.98549 10.6948 6.91517 10.7652C6.84484 10.8355 6.74946 10.875 6.65 10.875H4.85C4.75054 10.875 4.65516 10.8355 4.58484 10.7652C4.51451 10.6948 4.475 10.5995 4.475 10.5V7.275H3.5C3.40054 7.275 3.30516 7.23549 3.23483 7.16516C3.16451 7.09484 3.125 6.99946 3.125 6.9V5.1C3.125 5.05075 3.1347 5.00199 3.15355 4.95649C3.17239 4.911 3.20001 4.86966 3.23483 4.83484C3.26966 4.80001 3.311 4.77239 3.35649 4.75355C3.40199 4.7347 3.45075 4.725 3.5 4.725H4.475V3.75C4.47508 3.05384 4.7517 2.38622 5.244 1.894ZM7.1 1.875C6.60272 1.875 6.12581 2.07254 5.77417 2.42417C5.42254 2.77581 5.225 3.25272 5.225 3.75V5.1C5.225 5.19946 5.18549 5.29484 5.11517 5.36517C5.04484 5.43549 4.94946 5.475 4.85 5.475H3.875V6.525H4.85C4.94946 6.525 5.04484 6.56451 5.11517 6.63483C5.18549 6.70516 5.225 6.80054 5.225 6.9V10.125H6.275V6.9C6.275 6.80054 6.31451 6.70516 6.38484 6.63483C6.45516 6.56451 6.55054 6.525 6.65 6.525H7.707L7.9695 5.475H6.65C6.55054 5.475 6.45516 5.43549 6.38484 5.36517C6.31451 5.29484 6.275 5.19946 6.275 5.1V3.75C6.275 3.5312 6.36192 3.32135 6.51664 3.16664C6.67135 3.01192 6.8812 2.925 7.1 2.925H8.075V1.875H7.1Z" fill="#111111" fill-opacity="0.6"/>
</g>
</svg>
