<svg width="7" height="10" viewBox="0 0 7 10" fill="none" xmlns="http://www.w3.org/2000/svg">
<g id="Vector">
<path d="M5.14548 5L1.10381 8.48879C1.07053 8.5169 1.04422 8.55028 1.02641 8.58699C1.00859 8.62371 0.99962 8.66302 1.00001 8.70266C1.0004 8.74231 1.01015 8.78149 1.02869 8.81795C1.04723 8.85441 1.0742 8.88741 1.10802 8.91506C1.14185 8.94271 1.18187 8.96445 1.22576 8.97902C1.26966 8.99359 1.31656 9.0007 1.36375 8.99995C1.41094 8.99919 1.45748 8.99058 1.50068 8.97462C1.54389 8.95866 1.58289 8.93565 1.61544 8.90695L5.89889 5.20908C5.96373 5.15311 6 5.07809 6 5C6 4.92191 5.96373 4.84689 5.89889 4.79092L1.61544 1.09305C1.58289 1.06434 1.54389 1.04134 1.50068 1.02538C1.45748 1.00942 1.41094 1.00081 1.36375 1.00005C1.31656 0.9993 1.26966 1.00641 1.22576 1.02098C1.18187 1.03555 1.14185 1.05729 1.10802 1.08494C1.0742 1.11259 1.04723 1.14559 1.02869 1.18205C1.01015 1.21851 1.0004 1.25769 1.00001 1.29734C0.999621 1.33698 1.00859 1.37629 1.02641 1.41301C1.04423 1.44972 1.07053 1.4831 1.10381 1.51121L5.14548 5Z" fill="#111111" fill-opacity="0.7"/>
<path d="M5.99691 5.32262L5.99692 5.32262C6.09115 5.24126 6.15 5.12624 6.15 5C6.15 4.87376 6.09115 4.75874 5.99692 4.67738L5.99691 4.67738L1.71466 0.980556C1.71445 0.980369 1.71424 0.980183 1.71403 0.979997C1.66691 0.938592 1.61188 0.906556 1.55267 0.884677C1.49319 0.862699 1.42985 0.851093 1.36615 0.850073C1.30245 0.849055 1.23874 0.858629 1.17851 0.878621L1.22576 1.02098L1.17851 0.878622C1.11829 0.898612 1.0619 0.928908 1.0131 0.968794C0.964257 1.00871 0.923603 1.05779 0.894988 1.11406C0.866307 1.17046 0.850648 1.23233 0.85002 1.29585C0.849392 1.35938 0.863827 1.42156 0.891461 1.4785L1.02641 1.41301L0.891461 1.4785C0.918906 1.53505 0.95846 1.58463 1.00634 1.62523L4.91592 5L1.00633 8.37478C0.95845 8.41538 0.918902 8.46496 0.89146 8.5215C0.863827 8.57844 0.849391 8.64062 0.850019 8.70415C0.850647 8.76766 0.866306 8.82954 0.894988 8.88594C0.923603 8.94221 0.964258 8.99129 1.0131 9.0312C1.0619 9.07109 1.11829 9.10139 1.17851 9.12138L1.22576 8.97902L1.17851 9.12138C1.23874 9.14137 1.30245 9.15094 1.36615 9.14993C1.42985 9.14891 1.49319 9.1373 1.55267 9.11532C1.61188 9.09344 1.66691 9.06141 1.71402 9.02001L5.99691 5.32262Z" stroke="#111111" stroke-opacity="0.7" stroke-width="0.3"/>
</g>
</svg>
