<svg width="12" height="12" viewBox="0 0 12 12" fill="none" xmlns="http://www.w3.org/2000/svg">
<g id="streamline:phone-contact-phonebook-phonebook-phone-number-books-book" clip-path="url(#clip0_1_450)">
<path id="Vector" d="M3.42885 0.428467V11.5713M6.42885 3.42847H8.14314M10.286 11.5713H1.71456C1.48724 11.5713 1.26922 11.481 1.10847 11.3203C0.947728 11.1595 0.857422 10.9415 0.857422 10.7142V1.28561C0.857422 1.05828 0.947728 0.840264 1.10847 0.679518C1.26922 0.518773 1.48724 0.428467 1.71456 0.428467H10.286C10.5133 0.428467 10.7313 0.518773 10.8921 0.679518C11.0528 0.840264 11.1431 1.05828 11.1431 1.28561V10.7142C11.1431 10.9415 11.0528 11.1595 10.8921 11.3203C10.7313 11.481 10.5133 11.5713 10.286 11.5713Z" stroke="#A255A2" stroke-linecap="round" stroke-linejoin="round"/>
</g>
<defs>
<clipPath id="clip0_1_450">
<rect width="12" height="12" fill="white"/>
</clipPath>
</defs>
</svg>
