<svg width="21" height="26" viewBox="0 0 21 26" fill="none" xmlns="http://www.w3.org/2000/svg">
<path id="Vector" d="M7.04774 20.3846V21.3077C7.04774 22.287 7.41139 23.2261 8.05869 23.9185C8.706 24.611 9.58393 25 10.4994 25C11.4148 25 12.2927 24.611 12.94 23.9185C13.5873 23.2261 13.951 22.287 13.951 21.3077V20.3846M1.24039 18.5056C2.62535 16.6923 3.60313 15.7692 3.60313 10.7702C3.60313 6.19231 5.78844 4.56135 7.58705 3.76923C7.82597 3.66423 8.05086 3.42308 8.12367 3.16058C8.43917 2.01192 9.32365 1 10.4994 1C11.6751 1 12.5601 2.0125 12.8723 3.16173C12.9452 3.42712 13.17 3.66423 13.409 3.76923C15.2097 4.5625 17.3929 6.18769 17.3929 10.7702C17.3956 15.7692 18.3734 16.6923 19.7583 18.5056C20.3322 19.2567 19.8295 20.3846 18.8258 20.3846H2.16747C1.1692 20.3846 0.669794 19.2533 1.24039 18.5056Z" stroke="#111111" stroke-opacity="0.7" stroke-width="2" stroke-linecap="round" stroke-linejoin="round"/>
</svg>
