<svg width="22" height="22" viewBox="0 0 22 22" fill="none" xmlns="http://www.w3.org/2000/svg">
<g id="mingcute:search-line" clip-path="url(#clip0_70_836)">
<g id="Group">
<path id="Vector" fill-rule="evenodd" clip-rule="evenodd" d="M9.62499 1.83337C8.38253 1.83348 7.15811 2.13071 6.05389 2.70026C4.94967 3.26981 3.99766 4.09517 3.27729 5.10748C2.55692 6.11979 2.08908 7.28969 1.9128 8.51958C1.73653 9.74947 1.85693 11.0037 2.26395 12.1776C2.67098 13.3515 3.35283 14.411 4.25262 15.2678C5.15241 16.1246 6.24405 16.7538 7.43646 17.1028C8.62887 17.4519 9.88747 17.5108 11.1073 17.2745C12.327 17.0383 13.4726 16.5138 14.4485 15.7447L17.7962 19.0924C17.969 19.2593 18.2006 19.3517 18.4409 19.3497C18.6813 19.3476 18.9112 19.2512 19.0812 19.0812C19.2511 18.9112 19.3475 18.6813 19.3496 18.441C19.3517 18.2006 19.2593 17.9691 19.0923 17.7962L15.7447 14.4485C16.6503 13.2996 17.2142 11.9189 17.3718 10.4645C17.5294 9.01 17.2744 7.54056 16.6359 6.22429C15.9973 4.90803 15.0011 3.79812 13.7613 3.02159C12.5214 2.24505 11.088 1.83328 9.62499 1.83337ZM3.66665 9.62504C3.66665 8.04479 4.29441 6.52927 5.41181 5.41186C6.52921 4.29446 8.04474 3.66671 9.62499 3.66671C11.2052 3.66671 12.7208 4.29446 13.8382 5.41186C14.9556 6.52927 15.5833 8.04479 15.5833 9.62504C15.5833 11.2053 14.9556 12.7208 13.8382 13.8382C12.7208 14.9556 11.2052 15.5834 9.62499 15.5834C8.04474 15.5834 6.52921 14.9556 5.41181 13.8382C4.29441 12.7208 3.66665 11.2053 3.66665 9.62504Z" fill="black" fill-opacity="0.8"/>
</g>
</g>
<defs>
<clipPath id="clip0_70_836">
<rect width="22" height="22" fill="white"/>
</clipPath>
</defs>
</svg>
