<svg width="424" height="249" viewBox="0 0 424 249" fill="none" xmlns="http://www.w3.org/2000/svg">
<circle cx="328" cy="153" r="96" fill="white"/>
<g clip-path="url(#clip0_319_3)">
<path d="M355.311 217.461C345.211 225.629 332.123 226.039 319.471 225.036C317.705 224.896 315.951 224.732 314.213 224.555C314.202 224.552 314.188 224.553 314.178 224.55C314.094 224.541 314.011 224.532 313.931 224.527C313.572 224.489 313.213 224.451 312.858 224.413L312.942 224.593L313.205 225.151C313.11 224.964 313.016 224.781 312.921 224.595C312.893 224.539 312.862 224.483 312.834 224.427C309.557 218.024 306.306 211.386 305.477 204.075C304.62 196.487 307.029 187.894 312.978 184.164C313.758 183.676 314.585 183.288 315.442 183.006C315.797 182.884 316.158 182.786 316.523 182.699C318.754 182.142 321.077 182.263 323.253 183.049C325.429 183.835 327.379 185.257 328.903 187.169C330.427 189.082 331.469 191.415 331.923 193.93C332.378 196.445 332.227 199.05 331.487 201.477C336.531 195.671 335.59 186.252 333.85 178.379C332.107 170.507 329.997 161.748 333.542 154.677C335.513 150.741 338.98 148.3 342.869 147.316C342.989 147.287 343.108 147.258 343.227 147.233C347.862 146.179 352.68 147.127 356.72 149.887C364.157 155.149 367.977 165.125 369.217 174.898C371.215 190.623 366.794 208.174 355.311 217.461Z" fill="#F1F1F1"/>
<path d="M352.05 192.252C351.757 195.721 351.015 199.123 349.847 202.352C348.771 205.208 347.32 207.868 345.543 210.244C341.913 215.146 337.113 218.831 331.9 221.287C327.914 223.119 323.738 224.379 319.471 225.036C317.704 224.896 315.95 224.732 314.212 224.555C314.202 224.552 314.188 224.553 314.177 224.55C314.094 224.541 314.01 224.532 313.93 224.527C313.572 224.489 313.213 224.451 312.857 224.413L312.941 224.593L313.205 225.151C313.11 224.964 313.016 224.781 312.921 224.595C312.893 224.539 312.862 224.483 312.834 224.427C316.033 220.849 318.422 216.462 319.8 211.634C321.177 206.806 321.504 201.677 320.753 196.678C319.967 191.715 318.147 187.03 315.441 183.006C315.797 182.884 316.158 182.786 316.523 182.699C317.551 184.277 318.453 185.954 319.218 187.71C321.963 193.974 322.839 201.063 321.716 207.93C320.671 214.143 318.07 219.893 314.216 224.504C314.554 224.477 314.894 224.446 315.228 224.412C321.543 223.812 327.845 222.287 333.573 219.166C338.47 216.562 342.72 212.646 345.951 207.764C349.42 202.393 350.949 195.933 351.212 189.366C351.49 182.337 350.677 175.183 349.248 168.347C347.789 161.339 345.572 154.557 342.645 148.153C342.579 148.008 342.566 147.84 342.608 147.684C342.65 147.528 342.743 147.396 342.869 147.316C342.974 147.236 343.103 147.207 343.227 147.233C343.288 147.251 343.345 147.284 343.392 147.33C343.44 147.376 343.478 147.434 343.503 147.499C343.864 148.29 344.219 149.081 344.56 149.882C347.398 156.549 349.488 163.586 350.782 170.832C352.037 177.822 352.707 185.134 352.05 192.252Z" fill="white"/>
<path d="M223.983 227H369.618C369.719 227 369.816 226.955 369.888 226.874C369.96 226.794 370 226.685 370 226.571C370 226.457 369.96 226.348 369.888 226.267C369.816 226.187 369.719 226.142 369.618 226.142H223.983C223.882 226.142 223.785 226.187 223.713 226.267C223.641 226.348 223.601 226.457 223.601 226.571C223.601 226.685 223.641 226.794 223.713 226.874C223.785 226.955 223.882 227 223.983 227Z" fill="#CBCBCB"/>
<path d="M267.7 111.77L274.285 75.5459L277.178 48.7911L283.586 53.4453L282.701 82.9291L272.472 113.477C272.801 114.18 272.936 114.977 272.861 115.766C272.785 116.556 272.502 117.302 272.047 117.91C271.593 118.518 270.988 118.961 270.308 119.182C269.629 119.403 268.907 119.393 268.233 119.151C267.559 118.91 266.964 118.45 266.524 117.828C266.084 117.207 265.819 116.452 265.762 115.661C265.705 114.87 265.858 114.077 266.204 113.384C266.549 112.691 267.07 112.129 267.7 111.77Z" fill="#FFB7B7"/>
<path d="M329.29 114.571L327.467 77.6569L328.071 50.7142L319.599 54.2727L318.184 83.5877L324.347 115.481C323.931 116.123 323.694 116.889 323.667 117.682C323.639 118.475 323.823 119.26 324.194 119.936C324.564 120.612 325.106 121.149 325.749 121.478C326.393 121.808 327.109 121.915 327.807 121.787C328.505 121.658 329.153 121.3 329.668 120.757C330.184 120.214 330.545 119.511 330.704 118.737C330.863 117.963 330.813 117.154 330.561 116.412C330.31 115.67 329.867 115.029 329.29 114.571Z" fill="#FFB7B7"/>
<path d="M311.546 221.892L307.217 221.891L305.157 203.146L311.546 203.147L311.546 221.892Z" fill="#FFB7B7"/>
<path d="M312.65 220.305L304.124 220.305C302.683 220.305 301.301 220.947 300.282 222.091C299.263 223.235 298.691 224.786 298.691 226.404V226.602L312.65 226.603L312.65 220.305Z" fill="#2F2E41"/>
<path d="M295.148 219.741L290.87 220.484L286.282 202.313L292.596 201.216L295.148 219.741Z" fill="#FFB7B7"/>
<path d="M296.024 217.984L287.598 219.447C286.174 219.694 284.896 220.566 284.045 221.872C283.194 223.177 282.839 224.808 283.06 226.407L283.087 226.603L296.881 224.207L296.024 217.984Z" fill="#2F2E41"/>
<path d="M312.817 216.295L312.84 216.159L328.512 121.035C329.756 113.399 328.764 105.516 325.683 98.5651L316.198 77.2677L287.893 81.5724L284.553 108.687L272.649 160.413L272.661 160.455L287.912 214.842L297.908 215.58L289.054 167.032L305.266 125.693L304.123 215.555L312.817 216.295Z" fill="#2F2E41"/>
<path d="M287.235 85.0427L287.421 84.7141C287.455 84.6548 290.893 78.8398 300.249 82.7224C309.8 86.6867 317.2 79.03 317.274 78.9522L317.311 78.9134L319.473 57.2711L322.027 39.7017L313.899 38.1008L309.903 35.4094L294.013 35.0918L289.831 38.7839L282.966 39.6238L282.337 55.6326L282.34 55.6501L287.235 85.0427Z" fill="#800080"/>
<path d="M284.957 57.1811V43.4731L283.026 39.5178L282.948 39.5151C281.428 39.5788 279.992 40.3114 278.949 41.5546C277.008 43.7695 276.128 47.4596 276.335 52.5225L276.339 52.6151L284.957 57.1811Z" fill="#800080"/>
<path d="M318.607 55.6911L328.446 54.3654L328.454 54.2382C328.79 48.7298 327.933 44.6408 325.908 42.0852C324.071 39.7658 321.965 39.6254 321.876 39.6206L321.82 39.6176L319.156 42.3359L318.607 55.6911Z" fill="#800080"/>
<path d="M290.123 29.5683H316.015C316.548 29.5676 317.058 29.3298 317.435 28.907C317.811 28.4842 318.023 27.911 318.024 27.3131V16.7888C318.024 12.3361 316.448 8.06582 313.644 4.91731C310.839 1.76881 307.035 0 303.069 0C299.103 0 295.299 1.76881 292.494 4.91731C289.689 8.06582 288.114 12.3361 288.114 16.7888V27.3131C288.114 27.911 288.326 28.4842 288.703 28.907C289.08 29.3298 289.59 29.5676 290.123 29.5683Z" fill="#2F2E41"/>
<path d="M292.847 23.0598C289.942 17.0948 291.895 9.61591 297.208 6.35517C302.522 3.09443 309.184 5.28663 312.088 11.2516C314.993 17.2166 313.04 24.6955 307.727 27.9562C302.413 31.217 295.751 29.0248 292.847 23.0598Z" fill="#FFB7B7"/>
<path d="M292.046 17.5405H306.521C306.793 17.5401 307.056 17.4284 307.26 17.2263C307.464 17.0242 307.595 16.7457 307.629 16.4427L307.816 14.7597C307.834 14.5978 307.899 14.4469 308 14.3298C308.101 14.2126 308.233 14.1356 308.377 14.1102C308.52 14.0849 308.667 14.1126 308.795 14.1892C308.924 14.2658 309.026 14.3872 309.088 14.535L310.037 16.8176C310.127 17.0333 310.27 17.2157 310.449 17.3437C310.628 17.4717 310.836 17.5399 311.048 17.5405H313.247C313.402 17.5405 313.556 17.5041 313.698 17.4334C313.841 17.3628 313.968 17.2596 314.073 17.1304C314.177 17.0011 314.257 16.8488 314.306 16.6831C314.355 16.5174 314.373 16.342 314.358 16.1682L313.491 6.00166C313.472 5.78415 313.404 5.57578 313.292 5.39691C313.18 5.21805 313.029 5.07482 312.853 4.98123C306.223 1.50691 299.501 1.5113 292.871 4.99445C292.703 5.08318 292.557 5.21759 292.447 5.3855C292.337 5.55342 292.265 5.74954 292.24 5.95614L290.941 16.1095C290.918 16.2872 290.93 16.4684 290.975 16.6408C291.02 16.8131 291.097 16.9725 291.202 17.1083C291.307 17.244 291.436 17.3528 291.582 17.4274C291.727 17.502 291.886 17.5406 292.046 17.5405Z" fill="#2F2E41"/>
<path d="M267.667 114.083L268.207 113.476L244.714 87.102H199.186L176.215 60.7824H131.275L108.602 35.131H3.05817V35.9892H108.283L130.956 61.6406H175.894L198.864 87.9602H244.397L267.667 114.083Z" fill="#3F3D56"/>
<path d="M175.449 77.2401C167.638 77.2401 161.306 70.1317 161.306 61.363C161.306 52.5943 167.638 45.4858 175.449 45.4858C183.26 45.4858 189.592 52.5943 189.592 61.363C189.592 70.1317 183.26 77.2401 175.449 77.2401Z" fill="white"/>
<path d="M108.175 39.9074C106.064 39.9074 104.352 37.9862 104.352 35.6163C104.352 33.2464 106.064 31.3252 108.175 31.3252C110.286 31.3252 111.997 33.2464 111.997 35.6163C111.997 37.9862 110.286 39.9074 108.175 39.9074Z" fill="#CBCBCB"/>
<path d="M3.8226 39.9074C1.71153 39.9074 0.000173569 37.9862 0.000173569 35.6163C0.000173569 33.2464 1.71153 31.3252 3.8226 31.3252C5.93366 31.3252 7.64502 33.2464 7.64502 35.6163C7.64502 37.9862 5.93366 39.9074 3.8226 39.9074Z" fill="#CBCBCB"/>
<path d="M55.8075 39.9074C53.6964 39.9074 51.985 37.9862 51.985 35.6163C51.985 33.2464 53.6964 31.3252 55.8075 31.3252C57.9185 31.3252 59.6299 33.2464 59.6299 35.6163C59.6299 37.9862 57.9185 39.9074 55.8075 39.9074Z" fill="#CBCBCB"/>
<path d="M175.449 77.6692C178.322 77.6692 181.13 76.7129 183.519 74.9212C185.908 73.1294 187.77 70.5827 188.869 67.6031C189.968 64.6236 190.256 61.3449 189.696 58.1818C189.135 55.0187 187.752 52.1132 185.72 49.8328C183.689 47.5523 181.101 45.9993 178.283 45.3701C175.465 44.7409 172.545 45.0638 169.891 46.298C167.237 47.5322 164.968 49.6222 163.372 52.3037C161.776 54.9853 160.924 58.1379 160.924 61.363C160.929 65.6862 162.46 69.8309 165.183 72.8878C167.906 75.9448 171.598 77.6644 175.449 77.6692ZM175.449 45.915C178.171 45.915 180.831 46.821 183.094 48.5185C185.357 50.2159 187.121 52.6285 188.163 55.4513C189.204 58.2741 189.477 61.3801 188.946 64.3768C188.415 67.3734 187.104 70.126 185.18 72.2864C183.255 74.4468 180.803 75.9181 178.134 76.5142C175.465 77.1103 172.698 76.8043 170.183 75.6351C167.669 74.4659 165.52 72.4859 164.008 69.9455C162.496 67.405 161.689 64.4183 161.689 61.363C161.693 57.2674 163.144 53.3408 165.724 50.4447C168.303 47.5486 171.801 45.9196 175.449 45.915Z" fill="#3F3D56"/>
<path d="M175.449 72.7071C169.868 72.7071 165.344 67.6281 165.344 61.3629C165.344 55.0977 169.868 50.0188 175.449 50.0188C181.03 50.0188 185.554 55.0977 185.554 61.3629C185.554 67.6281 181.03 72.7071 175.449 72.7071Z" fill="#800080"/>
<path d="M176.412 66.1519L179.437 61.7861L177.678 60.2503L176.246 62.3173L171.408 56.584L169.79 58.3047L176.412 66.1519Z" fill="white"/>
<path d="M245.017 103.416C237.206 103.416 230.874 96.3074 230.874 87.5387C230.874 78.7701 237.206 71.6616 245.017 71.6616C252.828 71.6616 259.16 78.7701 259.16 87.5387C259.16 96.3074 252.828 103.416 245.017 103.416Z" fill="white"/>
<path d="M245.017 103.845C247.89 103.845 250.698 102.889 253.087 101.097C255.476 99.3052 257.337 96.7585 258.437 93.7789C259.536 90.7993 259.824 87.5207 259.263 84.3576C258.703 81.1945 257.32 78.289 255.288 76.0085C253.257 73.7281 250.669 72.1751 247.851 71.5459C245.033 70.9167 242.113 71.2396 239.459 72.4738C236.805 73.708 234.536 75.798 232.94 78.4795C231.344 81.1611 230.492 84.3137 230.492 87.5388C230.496 91.862 232.028 96.0067 234.751 99.0636C237.474 102.121 241.166 103.84 245.017 103.845ZM245.017 72.0908C247.739 72.0908 250.399 72.9968 252.662 74.6942C254.925 76.3917 256.689 78.8043 257.731 81.6271C258.772 84.4498 259.045 87.5559 258.514 90.5525C257.983 93.5492 256.672 96.3017 254.748 98.4622C252.823 100.623 250.371 102.094 247.702 102.69C245.033 103.286 242.266 102.98 239.751 101.811C237.237 100.642 235.088 98.6617 233.576 96.1212C232.064 93.5808 231.257 90.5941 231.257 87.5388C231.261 83.4431 232.712 79.5166 235.292 76.6205C237.871 73.7244 241.369 72.0954 245.017 72.0908Z" fill="#3F3D56"/>
<path d="M245.017 98.8828C239.437 98.8828 234.912 93.8039 234.912 87.5387C234.912 81.2735 239.437 76.1946 245.017 76.1946C250.598 76.1946 255.123 81.2735 255.123 87.5387C255.123 93.8039 250.598 98.8828 245.017 98.8828Z" fill="#800080"/>
<path d="M245.981 92.3277L249.005 87.9619L247.246 86.4261L245.814 88.4931L240.976 82.7598L239.359 84.4805L245.981 92.3277Z" fill="white"/>
</g>
<defs>
<clipPath id="clip0_319_3">
<rect width="370" height="227" fill="white" transform="matrix(-1 0 0 1 370 0)"/>
</clipPath>
</defs>
</svg>
