<svg width="12" height="12" viewBox="0 0 12 12" fill="none" xmlns="http://www.w3.org/2000/svg">
<g id="mingcute:twitter-line" clip-path="url(#clip0_1_436)">
<g id="Group">
<path id="Vector" fill-rule="evenodd" clip-rule="evenodd" d="M8.90877 3.49445C8.73227 3.24045 8.26027 2.88345 7.49577 3.03745C7.04977 3.12695 6.78327 3.34745 6.61377 3.63845C6.43327 3.94845 6.34577 4.36995 6.34577 4.86045C6.34577 4.99306 6.29309 5.12024 6.19932 5.21401C6.10555 5.30777 5.97837 5.36045 5.84577 5.36045C4.66277 5.36045 3.53677 5.00895 2.58927 4.05845C2.51773 4.4441 2.48956 4.83654 2.50527 5.22845C2.53177 5.77145 2.66127 6.31595 2.96877 6.78245C3.27127 7.24095 3.76877 7.66095 4.60077 7.92495C4.68229 7.95081 4.75582 7.99716 4.81432 8.05955C4.87283 8.12194 4.91434 8.1983 4.93491 8.28132C4.95548 8.36434 4.95441 8.45124 4.93179 8.53373C4.90918 8.61622 4.86579 8.69152 4.80577 8.75245C4.53926 9.0258 4.23722 9.26208 3.90777 9.45495C4.43777 9.50995 4.94877 9.51395 5.42277 9.47095C6.38277 9.38395 7.14727 9.10945 7.62527 8.72095C8.63177 7.90495 9.17027 6.68795 9.07027 4.64895C9.05327 4.31395 9.37677 3.95245 9.53277 3.67795C9.29727 3.72195 9.06127 3.71395 8.90877 3.49445ZM2.29727 2.49195C2.38779 2.48143 2.47947 2.49585 2.5624 2.53366C2.64532 2.57146 2.71634 2.63121 2.76777 2.70645C3.50577 3.78595 4.39177 4.23495 5.37527 4.33695C5.42327 3.91645 5.53677 3.50095 5.75027 3.13495C6.06327 2.59795 6.57227 2.20295 7.29927 2.05695C8.30427 1.85495 9.06927 2.21895 9.51277 2.66445L10.4088 2.49695C10.5025 2.47938 10.5994 2.489 10.6878 2.52468C10.7763 2.56035 10.8527 2.62058 10.9081 2.69828C10.9634 2.77597 10.9954 2.86787 11.0002 2.96314C11.005 3.05841 10.9825 3.15307 10.9353 3.23595L10.0753 4.74695C10.1538 6.92745 9.54777 8.44945 8.25577 9.49795C7.57077 10.054 6.58977 10.3695 5.51327 10.467C4.42827 10.565 3.20177 10.4465 1.98277 10.0905C1.87861 10.0601 1.78717 9.99664 1.72223 9.90972C1.65729 9.82281 1.62239 9.71713 1.62278 9.60863C1.62318 9.50014 1.65885 9.39472 1.72442 9.30828C1.78999 9.22184 1.88189 9.15907 1.98627 9.12945C2.59927 8.95495 3.06627 8.80445 3.48777 8.54095C2.88827 8.22295 2.44677 7.80695 2.13427 7.33295C1.70027 6.67395 1.53927 5.93895 1.50727 5.27645C1.47527 4.61395 1.57077 3.99995 1.67177 3.55745C1.72927 3.30495 1.79627 3.05195 1.88877 2.80995C1.92139 2.72465 1.97676 2.64991 2.04887 2.59385C2.12097 2.53779 2.20655 2.50255 2.29727 2.49195Z" fill="black" fill-opacity="0.6"/>
</g>
</g>
<defs>
<clipPath id="clip0_1_436">
<rect width="12" height="12" fill="white"/>
</clipPath>
</defs>
</svg>
