<svg width="11" height="12" viewBox="0 0 11 12" fill="none" xmlns="http://www.w3.org/2000/svg">
<g id="user people person users man">
<path id="Vector" d="M8.64904 6.08283C8.60601 6.0401 8.55498 6.00627 8.49887 5.98326C8.44277 5.96025 8.38268 5.94852 8.32203 5.94873C8.26139 5.94895 8.20138 5.9611 8.14544 5.98451C8.0895 6.00791 8.03871 6.04211 7.99598 6.08514C7.95325 6.12817 7.91942 6.1792 7.89641 6.23531C7.8734 6.29142 7.86167 6.35151 7.86188 6.41215C7.8621 6.47279 7.87425 6.5328 7.89766 6.58874C7.92106 6.64469 7.95526 6.69547 7.99829 6.7382C8.38882 7.12459 8.69882 7.58462 8.91034 8.09164C9.12186 8.59866 9.2307 9.1426 9.23057 9.69197C9.23057 10.255 7.61061 11.0766 5.07682 11.0766C2.54304 11.0766 0.923082 10.255 0.923082 9.69197C0.92235 9.14622 1.02917 8.60567 1.23745 8.10123C1.44572 7.59678 1.75136 7.13832 2.1369 6.75205C2.22286 6.66557 2.27111 6.5486 2.27111 6.42667C2.27111 6.30474 2.22286 6.18777 2.1369 6.10129C2.05043 6.01533 1.93345 5.96708 1.81152 5.96708C1.68959 5.96708 1.57262 6.01533 1.48615 6.10129C1.01313 6.57167 0.638197 7.13126 0.383091 7.74764C0.127986 8.36401 -0.00221861 9.0249 2.85998e-05 9.69197C2.85998e-05 11.1919 2.61689 11.9996 5.07682 11.9996C7.53676 11.9996 10.1536 11.1919 10.1536 9.69197C10.1554 9.02057 10.0232 8.35555 9.76489 7.73584C9.50655 7.11613 9.1272 6.55416 8.64904 6.08283Z" fill="#A255A2"/>
<path id="Vector_2" d="M5.07639 6.46138C5.71536 6.46138 6.33998 6.2719 6.87126 5.91691C7.40255 5.56192 7.81663 5.05735 8.06116 4.46702C8.30568 3.87669 8.36966 3.22711 8.245 2.60041C8.12035 1.97372 7.81265 1.39807 7.36083 0.946248C6.90901 0.494428 6.33336 0.186735 5.70667 0.0620782C5.07998 -0.0625786 4.43039 0.0013998 3.84006 0.245923C3.24973 0.490446 2.74516 0.904531 2.39017 1.43582C2.03518 1.9671 1.8457 2.59172 1.8457 3.23069C1.8457 4.08752 2.18608 4.90926 2.79195 5.51513C3.39782 6.121 4.21956 6.46138 5.07639 6.46138ZM5.07639 0.923055C5.5328 0.923055 5.97896 1.0584 6.35844 1.31196C6.73793 1.56553 7.03371 1.92593 7.20837 2.3476C7.38303 2.76926 7.42873 3.23325 7.33968 3.68089C7.25064 4.12852 7.03086 4.5397 6.70813 4.86243C6.38541 5.18516 5.97423 5.40494 5.52659 5.49398C5.07895 5.58302 4.61496 5.53732 4.1933 5.36267C3.77163 5.18801 3.41123 4.89223 3.15766 4.51274C2.9041 4.13325 2.76876 3.6871 2.76876 3.23069C2.76876 2.61867 3.01188 2.03171 3.44465 1.59895C3.87741 1.16618 4.46437 0.923055 5.07639 0.923055Z" fill="#A255A2"/>
</g>
</svg>
