<svg width="14" height="12" viewBox="0 0 14 12" fill="none" xmlns="http://www.w3.org/2000/svg">
<path id="Vector" d="M9.42461 4.53488L6.13049 2.30233C6.06844 2.26024 5.99631 2.23608 5.9218 2.23242C5.84729 2.22877 5.77321 2.24576 5.70746 2.28158C5.64172 2.3174 5.58677 2.3707 5.54851 2.4358C5.51024 2.50089 5.49009 2.57533 5.4902 2.65116V7.11628C5.49009 7.19211 5.51024 7.26655 5.54851 7.33165C5.58677 7.39674 5.64172 7.45004 5.70746 7.48586C5.77321 7.52168 5.84729 7.53867 5.9218 7.53502C5.99631 7.53137 6.06844 7.5072 6.13049 7.46512L9.42461 5.23256C9.48123 5.19437 9.52768 5.14254 9.55981 5.08167C9.59195 5.0208 9.60876 4.9528 9.60876 4.88372C9.60876 4.81464 9.59195 4.74664 9.55981 4.68577C9.52768 4.62491 9.48123 4.57307 9.42461 4.53488ZM6.31373 6.33419V3.43326L8.45353 4.88372L6.31373 6.33419ZM13.0392 0H0.960784C0.705968 0 0.461589 0.102907 0.281407 0.286082C0.101225 0.469257 0 0.717696 0 0.976744V8.7907C0 9.04975 0.101225 9.29819 0.281407 9.48136C0.461589 9.66454 0.705968 9.76744 0.960784 9.76744H13.0392C13.294 9.76744 13.5384 9.66454 13.7186 9.48136C13.8988 9.29819 14 9.04975 14 8.7907V0.976744C14 0.717696 13.8988 0.469257 13.7186 0.286082C13.5384 0.102907 13.294 0 13.0392 0ZM13.1765 8.7907C13.1765 8.82771 13.162 8.8632 13.1363 8.88936C13.1105 8.91553 13.0756 8.93023 13.0392 8.93023H0.960784C0.924382 8.93023 0.889471 8.91553 0.86373 8.88936C0.83799 8.8632 0.823529 8.82771 0.823529 8.7907V0.976744C0.823529 0.939737 0.83799 0.904246 0.86373 0.878078C0.889471 0.85191 0.924382 0.837209 0.960784 0.837209H13.0392C13.0756 0.837209 13.1105 0.85191 13.1363 0.878078C13.162 0.904246 13.1765 0.939737 13.1765 0.976744V8.7907ZM14 11.5814C14 11.6924 13.9566 11.7989 13.8794 11.8774C13.8022 11.9559 13.6974 12 13.5882 12H0.411765C0.302558 12 0.197824 11.9559 0.120603 11.8774C0.0433822 11.7989 0 11.6924 0 11.5814C0 11.4704 0.0433822 11.3639 0.120603 11.2854C0.197824 11.2069 0.302558 11.1628 0.411765 11.1628H13.5882C13.6974 11.1628 13.8022 11.2069 13.8794 11.2854C13.9566 11.3639 14 11.4704 14 11.5814Z" fill="#A255A2"/>
</svg>
